<svg xmlns="http://www.w3.org/2000/svg" xmlns:xlink="http://www.w3.org/1999/xlink" width="233.148" height="233.148" viewBox="0 0 233.148 233.148">
  <defs>
    <filter id="Elipse_15" x="4.5" y="7.5" width="224.148" height="224.148" filterUnits="userSpaceOnUse">
      <feOffset dy="3" input="SourceAlpha"/>
      <feGaussianBlur stdDeviation="6" result="blur"/>
      <feFlood/>
      <feComposite operator="in" in2="blur"/>
      <feComposite in="SourceGraphic"/>
    </filter>
    <filter id="Caminho_18" x="0" y="0" width="233.148" height="233.148" filterUnits="userSpaceOnUse">
      <feOffset input="SourceAlpha"/>
      <feGaussianBlur stdDeviation="7.5" result="blur-2"/>
      <feFlood flood-opacity="0.42"/>
      <feComposite operator="in" in2="blur-2"/>
      <feComposite in="SourceGraphic"/>
    </filter>
    <clipPath id="clip-path">
      <circle id="Elipse_2" data-name="Elipse 2" cx="94.074" cy="94.074" r="94.074" transform="translate(0 0)"/>
    </clipPath>
    <clipPath id="clip-path-11">
      <circle id="Elipse_13" data-name="Elipse 13" cx="94.074" cy="94.074" r="94.074" transform="translate(-83.819 -100.785)"/>
    </clipPath>
  </defs>
  <g id="man" transform="translate(22.5 22.5)">
    <g id="Grupo_21" data-name="Grupo 21">
      <g transform="matrix(1, 0, 0, 1, -22.5, -22.5)" filter="url(#Caminho_18)">
        <path id="Caminho_18-2" data-name="Caminho 18" d="M94.074,0A94.074,94.074,0,1,1,0,94.074,94.074,94.074,0,0,1,94.074,0Z" transform="translate(22.5 22.5)" fill="rgba(237,103,103,0.72)"/>
      </g>
      <g id="Grupo_6" data-name="Grupo 6" clip-path="url(#clip-path)">
        <path id="Caminho_1" data-name="Caminho 1" d="M135.938,52.784V84.05c0,.453-.011.9-.021,1.357-.02.936-.072,1.871-.154,2.8-.02.319-.052.637-.093.956-.134,1.326-.318,2.632-.555,3.928-.083.432-.165.853-.258,1.275a1.8,1.8,0,0,1-.051.257c-.083.432-.186.854-.288,1.275-.041.226-.1.452-.154.679-.052.195-.1.391-.164.586-.217.843-.463,1.666-.721,2.488-.123.391-.246.771-.38,1.162-.011.041-.031.082-.041.123q-.186.523-.37,1.048c-.041.1-.082.205-.124.319-.123.329-.246.658-.38.987-.154.4-.318.792-.483,1.183-.144.35-.3.7-.452,1.049-.02.062-.052.113-.072.174-.175.37-.339.741-.514,1.1q-.263.57-.556,1.142c-.37.75-.771,1.5-1.172,2.231q-.277.494-.556.987a60.435,60.435,0,0,1-5.253,7.649c-.258.339-.524.668-.8.987-.381.462-.772.915-1.162,1.357-.35.391-.7.781-1.059,1.162-.987,1.059-2,2.067-3.023,3.013-.205.206-.422.391-.638.586-.349.319-.7.627-1.059.925-.277.247-.565.483-.854.72-.74.606-1.48,1.192-2.23,1.737-.309.237-.628.463-.946.679-.514.37-1.038.72-1.563,1.059-.288.2-.586.38-.885.555-1.049.648-2.107,1.244-3.156,1.758-.257.133-.514.257-.771.38s-.524.247-.8.37q-.51.231-1.018.432a3.2,3.2,0,0,1-.4.154c-.4.165-.812.319-1.213.452-.5.185-1.018.339-1.521.483-.35.1-.709.2-1.059.277a.142.142,0,0,1-.072.021c-.35.082-.7.165-1.049.226a2.446,2.446,0,0,1-.277.051c-.288.051-.576.1-.864.134-.411.062-.822.113-1.233.134a2.973,2.973,0,0,1-.422.031c-.328.021-.657.031-.977.031h-.03q-.479,0-.956-.031a2.21,2.21,0,0,1-.371-.031c-.287-.01-.586-.042-.894-.083a1.275,1.275,0,0,1-.195-.02c-.381-.051-.761-.113-1.152-.185-.328-.051-.657-.124-1-.206a29.481,29.481,0,0,1-5.4-1.82,39.35,39.35,0,0,1-4.719-2.488c-.792-.483-1.584-1-2.365-1.542-.391-.278-.781-.555-1.172-.843q-1.836-1.343-3.63-2.92c-.328-.3-.657-.6-.986-.9s-.658-.606-.977-.9q-1.2-1.157-2.345-2.406-.447-.477-.895-.987c-.822-.925-1.624-1.881-2.385-2.879-.3-.36-.576-.73-.854-1.1q-1.557-2.065-2.951-4.308c-.246-.4-.493-.813-.729-1.213-.288-.483-.565-.976-.843-1.47a56.061,56.061,0,0,1-2.8-5.758c-.123-.288-.247-.576-.35-.863-.165-.37-.309-.751-.442-1.121q-.308-.817-.586-1.635c-.185-.545-.359-1.1-.534-1.655-.165-.535-.319-1.069-.463-1.614-.165-.576-.318-1.162-.452-1.758-.011-.062-.031-.123-.041-.185q-.292-1.233-.524-2.5c-.206-1.111-.37-2.242-.494-3.383-.051-.36-.082-.72-.113-1.08-.041-.38-.071-.751-.092-1.131-.052-.689-.083-1.388-.1-2.087-.01-.453-.021-.9-.021-1.357V52.784A41.861,41.861,0,0,1,94.039,10.929h.041a42.314,42.314,0,0,1,9.273,1.028,41.969,41.969,0,0,1,23.668,15.011A41.644,41.644,0,0,1,135.938,52.784Z" fill="#ecc19c"/>
      </g>
      <g id="Grupo_7" data-name="Grupo 7" clip-path="url(#clip-path)">
        <path id="Caminho_2" data-name="Caminho 2" d="M148.613,200.741v.01H39.538v-.01a54.262,54.262,0,0,1,2.91-17.612q.509-1.5,1.11-2.961v-.01c.4-.977.822-1.933,1.274-2.879a53.982,53.982,0,0,1,6.642-10.59c.658-.812,1.326-1.6,2.016-2.365.339-.391.7-.771,1.059-1.151s.72-.74,1.09-1.11a54.273,54.273,0,0,1,5.892-5.079c1.038-.771,2.087-1.491,3.177-2.19s2.2-1.347,3.331-1.964a.065.065,0,0,1,.041-.02c.442-.236.874-.493,1.306-.761.854-.514,1.7-1.069,2.5-1.665.411-.288.8-.586,1.192-.9.925-.74,1.819-1.532,2.673-2.365.277-.277.556-.555.833-.843.575-.6,1.12-1.224,1.645-1.861.258-.308.515-.627.751-.946s.483-.647.72-.977a34.214,34.214,0,0,0,6.395-20l7.948.041,8.173.041a34.416,34.416,0,0,0,12.924,26.916c.381.309.761.607,1.142.884s.75.545,1.141.8c.083.062.154.113.237.165.37.247.74.494,1.131.72.421.257.854.514,1.285.751a.5.5,0,0,1,.185.093c.9.5,1.8,1.028,2.674,1.573.421.257.843.524,1.254.823q1.281.832,2.5,1.758a.011.011,0,0,0,.011.011h.01a55.054,55.054,0,0,1,5.881,5.079A54.266,54.266,0,0,1,148.613,200.741Z" fill="#ecc19c"/>
      </g>
      <g id="Grupo_8" data-name="Grupo 8" clip-path="url(#clip-path)">
        <path id="Caminho_3" data-name="Caminho 3" d="M148.614,200.743H39.539a54.285,54.285,0,0,1,2.91-17.612q.509-1.5,1.11-2.961c-.011-.011,0-.011,0-.011.391-.977.822-1.933,1.274-2.878a53.982,53.982,0,0,1,6.642-10.59c.658-.813,1.327-1.6,2.016-2.365.339-.391.7-.771,1.059-1.151s.72-.74,1.09-1.11a54.164,54.164,0,0,1,5.892-5.079c1.038-.771,2.087-1.491,3.177-2.19s2.2-1.357,3.331-1.974a.037.037,0,0,1,.041-.01v-.01c.442-.247.874-.494,1.306-.751a31.774,31.774,0,0,0,3.671-2.591l.021.02a29.3,29.3,0,0,0,20.964,8.852h.082a29.367,29.367,0,0,0,21.015-8.842l.011-.01a27.522,27.522,0,0,0,2.272,1.7c.082.061.154.113.236.164.37.247.75.483,1.131.72.422.257.854.5,1.285.74a1,1,0,0,1,.185.092c.9.5,1.8,1.028,2.674,1.583.421.257.843.524,1.254.823.854.545,1.687,1.141,2.5,1.758h.021a54.61,54.61,0,0,1,21.907,43.687Z" fill="#c7d4e2"/>
      </g>
      <g id="Grupo_9" data-name="Grupo 9" clip-path="url(#clip-path)">
        <path id="Caminho_4" data-name="Caminho 4" d="M135.938,84.05c0,.453-.011.9-.021,1.357-.02.936-.072,1.871-.154,2.8-.02.319-.052.637-.093.956-.134,1.326-.318,2.632-.555,3.928-.083.432-.165.853-.258,1.275a1.8,1.8,0,0,1-.051.257c-.083.432-.186.854-.288,1.275-.052.247-.113.483-.186.72a4.611,4.611,0,0,1-.133.545c-.217.843-.463,1.666-.721,2.488-.123.391-.246.771-.38,1.162-.011.041-.031.082-.041.123q-.186.523-.37,1.048c-.041.1-.082.205-.124.319-.123.329-.246.658-.38.987-.154.4-.318.792-.483,1.183-.144.35-.3.7-.452,1.049-.02.062-.052.113-.072.174-.175.37-.339.741-.514,1.1q-.263.57-.556,1.142c-.37.75-.771,1.5-1.172,2.231q-.277.494-.556.987a60.435,60.435,0,0,1-5.253,7.649c-.258.339-.524.668-.8.987-.381.462-.772.915-1.162,1.357-.35.391-.7.781-1.059,1.162-.987,1.059-2,2.067-3.023,3.013-.205.206-.422.391-.638.586-.349.319-.7.627-1.059.925-.277.247-.565.483-.854.72-.74.606-1.48,1.192-2.23,1.737-.309.237-.628.463-.946.679-.514.37-1.038.72-1.563,1.059-.288.2-.586.38-.885.555-1.049.648-2.107,1.244-3.156,1.758-.257.133-.514.257-.771.38s-.524.247-.8.37q-.51.231-1.018.432a3.2,3.2,0,0,1-.4.154c-.4.165-.812.319-1.213.452-.5.185-1.018.339-1.521.483-.35.1-.709.2-1.059.277a.142.142,0,0,1-.072.021c-.35.082-.7.165-1.049.226a2.446,2.446,0,0,1-.277.051c-.288.051-.576.1-.864.134-.411.062-.822.113-1.233.134a2.973,2.973,0,0,1-.422.031c-.328.021-.657.031-.977.031h-.03q-.479,0-.956-.031a2.21,2.21,0,0,1-.371-.031c-.287-.01-.586-.042-.894-.083a1.275,1.275,0,0,1-.195-.02c-.381-.051-.761-.113-1.152-.185-.328-.051-.657-.124-1-.206a29.481,29.481,0,0,1-5.4-1.82,39.35,39.35,0,0,1-4.719-2.488c-.792-.473-1.573-.987-2.365-1.542-.391-.278-.781-.555-1.172-.843q-1.836-1.343-3.63-2.92c-.328-.3-.657-.6-.986-.9s-.658-.606-.977-.9q-1.2-1.157-2.345-2.406-.447-.477-.895-.987c-.822-.925-1.624-1.881-2.385-2.879-.3-.36-.576-.73-.854-1.1q-1.557-2.065-2.951-4.308c-.246-.4-.493-.813-.729-1.213-.288-.483-.565-.976-.843-1.47a56.061,56.061,0,0,1-2.8-5.758c-.123-.288-.247-.576-.35-.863-.165-.37-.309-.751-.442-1.121q-.308-.817-.586-1.635c-.185-.545-.359-1.1-.534-1.655-.165-.535-.319-1.069-.463-1.614-.165-.576-.318-1.162-.452-1.758-.011-.062-.031-.123-.041-.185q-.292-1.233-.524-2.5c-.206-1.111-.37-2.242-.494-3.383-.051-.36-.082-.72-.113-1.08-.041-.38-.071-.751-.092-1.131-.052-.689-.083-1.388-.1-2.087-.01-.453-.021-.9-.021-1.357L58.9,97.189,70.381,102.2l13.581,1.224,10.076.915H94.1l9.428.854,21,1.892Z" fill="#543e36"/>
      </g>
      <g id="Grupo_10" data-name="Grupo 10" clip-path="url(#clip-path)">
        <path id="Caminho_5" data-name="Caminho 5" d="M127.023,26.968a57.57,57.57,0,0,1-7.855,12.852c-.185.227-.37.453-.565.679A57.633,57.633,0,0,1,94.041,57.823a56.012,56.012,0,0,1-7.855,2.262q-2.7.57-5.49.9a59.521,59.521,0,0,1-6.528.36,57.406,57.406,0,0,1-7.443-.483,54.308,54.308,0,0,1-7-1.336c-1.306-.329-2.581-.709-3.846-1.131-1.244-.411-2.457-.864-3.66-1.357V52.787A41.861,41.861,0,0,1,94.042,10.932h.041a42.314,42.314,0,0,1,9.273,1.028,41.984,41.984,0,0,1,23.667,15.008Z" fill="#543e36"/>
      </g>
      <g id="Grupo_11" data-name="Grupo 11" clip-path="url(#clip-path)">
        <path id="Caminho_6" data-name="Caminho 6" d="M135.938,52.784v8.235a64.177,64.177,0,0,1-17.314-20.48c-.01-.01-.01-.031-.021-.041a63.771,63.771,0,0,1-7.412-25.92,41.892,41.892,0,0,1,24.747,38.206Z" fill="#543e36"/>
      </g>
      <g id="Grupo_12" data-name="Grupo 12" clip-path="url(#clip-path)">
        <path id="Caminho_7" data-name="Caminho 7" d="M57.12,56.013c-.441.771-.843,1.563-1.244,2.375-.153.318-.308.658-.462.987a34.849,34.849,0,0,0-3.188,12.914c0,.113-.011.236-.011.35V56.517c0-.576.021-1.142.021-1.7C53.861,55.242,55.485,55.653,57.12,56.013Z" fill="#543e36"/>
      </g>
      <g id="Grupo_13" data-name="Grupo 13" clip-path="url(#clip-path)">
        <path id="Caminho_8" data-name="Caminho 8" d="M131.054,56.013c.622,1.093,1.177,2.213,1.71,3.361a34.451,34.451,0,0,1,3.2,13.268V56.512c0-.567-.021-1.134-.021-1.688C134.318,55.243,132.7,55.648,131.054,56.013Z" fill="#543e36"/>
      </g>
      <g id="Grupo_14" data-name="Grupo 14" clip-path="url(#clip-path)">
        <path id="Caminho_9" data-name="Caminho 9" d="M130.972,60.167a.355.355,0,0,0-.309-.35,112.061,112.061,0,0,0-15.309-1.142c-8.133,0-18.63,2.55-20.46,2.55H93.27c-.854,0-3.588-.555-7.084-1.141A85.206,85.206,0,0,0,72.81,58.675a112.491,112.491,0,0,0-13.088.843c-1.049.124-1.82.236-2.221.3a.355.355,0,0,0-.309.35l-.082,4.369a.381.381,0,0,0,.236.35l.493.175c.73.278.669,13.448,4.6,16.738,2.334,1.943,4.411,3.053,13.16,3.053,5.069,0,8.256-1.367,11.279-5.449,2.18-2.93,4.112-9.86,4.112-9.86.586-2.858,2.714-3.084,3.054-3.105h.041c.071,0,2.468.041,3.1,3.105,0,0,1.933,6.93,4.112,9.86,3.022,4.082,6.21,5.449,11.278,5.449,8.75,0,10.826-1.11,13.16-3.053,3.928-3.29,3.866-16.46,4.6-16.738l.494-.175a.38.38,0,0,0,.236-.35Zm-44.1,15.586c-1.285,3.043-4.606,6.971-9.284,7.207C63.557,83.669,62.909,79.752,62,76.647a21.371,21.371,0,0,1-.792-8.935c.37-3.105,1.152-4.925,2.561-5.84a6.39,6.39,0,0,1,2.951-1.018,56.341,56.341,0,0,1,7.731-.36,38.9,38.9,0,0,1,6.24.483c5,.8,8.369,2.5,8.369,4.174A31.155,31.155,0,0,1,86.875,75.753Zm39.284.894c-.9,3.105-1.552,7.022-15.586,6.313-4.678-.236-8-4.164-9.284-7.207a31.125,31.125,0,0,1-2.189-10.6c0-2.3,6.395-4.658,14.609-4.658s9.53.617,10.683,1.378c1.408.915,2.189,2.735,2.56,5.84A21.333,21.333,0,0,1,126.159,76.647Z" fill="#1a1a1a"/>
      </g>
      <g id="Grupo_15" data-name="Grupo 15" clip-path="url(#clip-path)">
        <path id="Caminho_10" data-name="Caminho 10" d="M94.123,90.65l-.011,10.138-.01,3.547v2.786l-.011,9.253v.01l-.01-.01H94.07l-.03-.021L53.6,95.771c-.011-.062-.031-.123-.041-.185q-.292-1.233-.524-2.5c-.206-1.111-.37-2.242-.494-3.383-.051-.36-.082-.72-.113-1.08-.041-.38-.071-.751-.092-1.131-.052-.689-.083-1.388-.1-2.087-.01-.453-.021-.9-.021-1.357V71.764c0,.175.011.35.011.524A40.912,40.912,0,0,0,53.7,81.87a41.589,41.589,0,0,0,2.622,7.063v.01c2.694,5.6,6.3,9.407,9.623,10.024.206.031.422.051.628.072a36.15,36.15,0,0,0,4.02.226c5.243,0,9.9-4.215,12.831-5.922l.062-.031c.154-.093.309-.185.442-.278a.785.785,0,0,1,.123-.072,20.8,20.8,0,0,1,9.994-2.313h.082Z" fill="#543e36"/>
        <path id="Caminho_11" data-name="Caminho 11" d="M135.947,71.764l-.01,12.286a50.4,50.4,0,0,1-.822,9.038c-.217,1.172-.463,2.333-.751,3.485l-9.49,13.705-30.782,6.1h-.01l-.011.01v-.01l-.03-25.727h.082a20.848,20.848,0,0,1,10,2.313.759.759,0,0,1,.113.072c.144.093.3.185.452.278a.206.206,0,0,0,.051.031c2.941,1.707,7.588,5.925,12.832,5.925a36.132,36.132,0,0,0,4.019-.226c.216-.021.422-.041.638-.072,3.311-.617,6.93-4.421,9.613-10.024v-.01a41.589,41.589,0,0,0,2.621-7.063,40.457,40.457,0,0,0,1.471-9.716C135.947,72.021,135.947,71.9,135.947,71.764Z" fill="#543e36"/>
      </g>
      <g id="Grupo_16" data-name="Grupo 16" transform="translate(83.819 100.785)" clip-path="url(#clip-path-11)">
        <ellipse id="Elipse_12" data-name="Elipse 12" cx="10.255" cy="3.17" rx="10.255" ry="3.17" fill="#ecc19c"/>
      </g>
      <g id="Grupo_17" data-name="Grupo 17" clip-path="url(#clip-path)">
        <path id="Caminho_12" data-name="Caminho 12" d="M64.131,155.174v56.558H59.762v-53.37c.586-.473,1.172-.936,1.769-1.378C62.384,156.347,63.247,155.75,64.131,155.174Z" fill="#435363"/>
        <path id="Caminho_13" data-name="Caminho 13" d="M124.021,155.185v56.547h4.369v-53.36Z" fill="#435363"/>
      </g>
      <g id="Grupo_20" data-name="Grupo 20" clip-path="url(#clip-path)">
        <g id="Grupo_18" data-name="Grupo 18">
          <path id="Caminho_14" data-name="Caminho 14" d="M82.113,151.713l11.961,14.336,11.962-14.336Z" fill="#141720"/>
          <path id="Caminho_15" data-name="Caminho 15" d="M94.074,225.437H87l5.11-65.8c.215.837,3.712.837,3.927,0l5.11,65.8Z" fill="#141720"/>
        </g>
        <g id="Grupo_19" data-name="Grupo 19">
          <path id="Caminho_16" data-name="Caminho 16" d="M94.07,151.638l-.03.051-.011.021-4.966,8.338-4.637,7.772L71.872,150.373c.4-.288.8-.6,1.183-.915l.021.021a34.2,34.2,0,0,0,6.621-6.991l14.343,9.13Z" fill="#e7ecf2"/>
          <path id="Caminho_17" data-name="Caminho 17" d="M116.278,150.373,103.724,167.82l-4.637-7.772L94.11,151.71l-.041-.072,14.436-9.191a34.484,34.484,0,0,0,6.631,7.042C115.518,149.8,115.9,150.1,116.278,150.373Z" fill="#e7ecf2"/>
        </g>
      </g>
    </g>
  </g>
</svg>
